<?xml version="1.0" encoding="utf-8"?>
<!-- Generator: Adobe Illustrator 16.0.0, SVG Export Plug-In . SVG Version: 6.00 Build 0)  -->
<!DOCTYPE svg PUBLIC "-//W3C//DTD SVG 1.1//EN" "http://www.w3.org/Graphics/SVG/1.1/DTD/svg11.dtd">
<svg version="1.1" id="Layer_1" xmlns="http://www.w3.org/2000/svg" xmlns:xlink="http://www.w3.org/1999/xlink" x="0px" y="0px"
	 width="220.565px" height="210.783px" viewBox="0 0 220.565 210.783" enable-background="new 0 0 220.565 210.783"
	 xml:space="preserve">
<path fill="#FDFDFE" d="M210.022,105.176c0,54.676-44.323,99-99,99s-99-44.324-99-99s44.323-99,99-99S210.022,50.5,210.022,105.176z
	 M60.76,68.356l1.567-8.182c1.323-7.008,3.38-10.828,4.948-10.828c0.393,0,0.637,0.244,0.637,1.028
	c0,2.106-2.254,12.592-3.43,17.981h4.459c0.441-1.812,1.273-5.83,2.009-9.799c1.666-7.203,3.87-9.555,5.096-9.555
	c0.539,0,0.784,0.441,0.784,0.98c0,3.527-3.186,8.966-3.186,14.258c0,2.988,1.617,4.36,3.332,4.36c4.018,0,6.223-5.684,8.379-11.269
	c0-0.295-1.078-0.687-1.372-0.687c-2.155,5.634-3.772,8.378-5.047,8.378c-0.44,0-0.979-0.244-0.979-1.666
	c0-4.018,3.185-9.848,3.185-14.404c0-2.352-1.127-3.479-2.842-3.479c-2.303,0-4.409,1.764-6.124,4.605
	c0.049-0.441,0.098-0.882,0.098-1.225c0-1.862-0.784-3.381-2.695-3.381c-2.008,0-3.821,1.715-5.291,4.213l0.637-3.674H60.71
	c-0.588,3.723-1.421,8.672-2.4,14.209c-1.372,3.674-1.813,8.133-1.813,8.133H60.76z M86.239,46.014c0,0-0.979,3.87-2.205,10.24
	c-0.44,2.352-0.783,4.703-0.783,6.712c0,3.282,0.882,5.635,3.479,5.635c1.323,0,2.449-0.833,3.381-2.155
	c-0.195,1.225-0.441,2.4-0.637,3.527c-3.773,3.282-6.713,6.174-6.713,9.406c0,2.598,1.568,3.871,3.773,3.871
	c3.135,0,4.997-3.625,5.83-8.574l0.882-5.193c7.104-5.929,16.462-13.376,16.462-25.674c0-9.26-6.516-13.425-13.768-13.425
	c-6.564,0-11.562,3.43-13.914,8.183l3.43,1.42c2.155-4.898,6.174-7.152,10.484-7.152c5.979,0,10.289,3.821,10.289,11.023
	c0,10.289-6.32,17.051-12.396,22.391c1.421-7.986,3.233-17.932,3.821-20.234h-4.018c-0.979,4.557-2.988,19.01-5.438,19.01
	c-0.441,0-0.98-0.244-0.98-1.666c0-1.959,0.441-4.262,0.98-7.006c1.225-6.271,2.204-10.338,2.204-10.338H86.239z M85.504,79.331
	c0-2.008,1.322-3.969,3.381-5.977l-0.883,4.801c-0.293,1.52-0.686,2.499-1.518,2.499C85.995,80.654,85.504,80.262,85.504,79.331z
	 M123.969,34.451c-1.127,4.948-1.764,8.231-2.401,11.612c-1.028,0-1.862-0.049-2.204-0.049l-0.344,2.303
	c0.196,0.049,1.029,0.049,2.156,0.049c-1.127,4.998-1.666,9.848-1.666,13.425c0,4.165,0.882,6.811,3.037,6.811
	c3.186,0,4.704-3.43,7.595-11.269c0-0.246-1.077-0.687-1.372-0.687c-1.47,3.772-3.381,8.378-4.703,8.378
	c-0.637,0-0.98-1.078-0.98-3.135c0-1.813,0.245-4.361,0.735-7.742c0.588-2.009,1.077-3.92,1.519-5.781c0.883,0,1.812,0,2.01-0.049
	l0.44-2.303c-0.44,0.049-1.127,0.098-1.911,0.098c0.833-3.92,1.323-7.644,1.568-11.661H123.969z M144.841,56.646
	c-0.882,2.303-2.058,3.528-3.332,4.116c0.638-2.156,1.226-4.655,1.226-7.057c0-4.409-1.715-8.182-4.998-8.182
	c-3.479,0-5.537,3.283-6.076,7.055l-1.764-0.44c-0.979,2.891-1.519,5.978-1.519,8.722c0,4.459,1.47,7.986,4.851,7.986
	c3.136,0,5.635-2.107,7.301-5.684c2.352-0.833,4.557-2.891,5.684-5.83C146.213,57.038,145.135,56.646,144.841,56.646z
	 M134.258,65.073c-0.147,0.049-0.245,0.049-0.393,0.049c-1.225,0-2.008-2.008-2.008-4.898c0-0.638,0.049-1.373,0.146-2.107
	c0.686,2.352,2.009,4.312,4.066,5.096C135.483,64.192,134.895,64.877,134.258,65.073z M136.659,48.708
	c0.098,0,0.245-0.049,0.344-0.049c1.371,0,1.91,1.666,1.91,3.87c0,2.598-0.734,6.027-1.812,8.623
	c-2.205-0.637-2.989-3.184-2.989-5.83C134.111,52.188,135.238,49.002,136.659,48.708z M146.311,46.014
	c-0.293,3.332-2.204,15.188-3.723,24.399c-0.98,3.43-2.01,8.329-2.01,12.103c0,0.195,0,0.343,0,0.49h3.283l2.842-16.953
	c0.98,1.96,2.891,2.793,4.949,2.793c6.025,0,9.015-5.586,11.269-11.514c0-0.295-1.078-0.687-1.372-0.687
	c-1.812,4.802-4.115,9.063-8.379,10.044c2.793-3.576,4.655-9.75,4.655-14.502c0-3.773-1.176-6.664-3.919-6.664
	c-1.568,0-3.039,1.176-4.312,3.136l0.393-2.646H146.311z M140.775,81.781c0-0.098,0.05-0.392,0.099-0.687
	C140.825,81.438,140.775,81.683,140.775,81.781z M140.971,80.458c0-0.195,0.049-0.343,0.098-0.588
	C141.02,80.115,140.971,80.311,140.971,80.458z M148.272,56.547c1.225-4.85,2.743-7.496,4.213-7.496
	c0.784,0,1.078,1.274,1.078,3.087c0,4.508-2.058,12.543-4.312,12.543c-1.323,0-1.715-1.47-1.715-3.038c0-0.343,0-0.637,0.049-0.931
	L148.272,56.547z M38.969,117.54c0,0,4.272,1.488,11.568,1.488c8.305,0,12.098-3.504,12.098-9.217c0-5.568-3.457-8.256-10.85-9.024
	c-2.976-0.288-3.647-0.624-3.647-1.392c0-0.769,1.104-1.152,3.696-1.152c3.936,0,9.121,0.672,9.121,0.672v-6.48
	c0,0-3.793-1.44-11.137-1.44c-8.737,0-12.242,3.792-12.242,8.784c0,5.377,4.033,8.209,10.705,9.121
	c3.024,0.432,3.697,0.721,3.697,1.584c0,0.769-0.625,1.248-3.457,1.248c-3.553,0-9.553-0.863-9.553-0.863V117.54z M77.802,90.994
	c-8.881,0-14.497,4.656-14.497,14.017c0,9.361,5.616,14.018,14.497,14.018c7.633,0,11.953-2.4,11.953-2.4v-7.68
	c-2.304,0.768-5.952,1.535-10.177,1.535c-3.36,0-4.561-1.152-4.561-3.456v-0.288h15.553v-3.456
	C90.571,97.234,87.643,90.994,77.802,90.994z M77.802,99.539c1.824,0,2.784,0.911,2.784,3.072v0.288h-5.568v-0.288
	C75.018,100.45,75.978,99.539,77.802,99.539z M91.336,91.666v7.873h2.016l5.137,18.817h16.226l4.993-18.817h2.063v-7.873h-14.112
	v7.873h2.16l-2.593,10.944h-0.479l-2.593-10.944h2.16v-7.873H91.336z M136.842,90.994c-8.881,0-14.498,4.656-14.498,14.017
	c0,9.361,5.617,14.018,14.498,14.018c7.633,0,11.953-2.4,11.953-2.4v-7.68c-2.305,0.768-5.953,1.535-10.178,1.535
	c-3.359,0-4.561-1.152-4.561-3.456v-0.288h15.554v-3.456C149.611,97.234,146.682,90.994,136.842,90.994z M136.842,99.539
	c1.824,0,2.783,0.911,2.783,3.072v0.288h-5.568v-0.288C134.057,100.45,135.018,99.539,136.842,99.539z M167.562,118.356h15.265
	v-7.873h-2.111v-7.872c0-8.017-3.264-11.617-8.497-11.617c-4.32,0-6.576,2.4-8.112,3.937v-3.265h-13.153v7.873h2.112v10.944h-2.112
	v7.873h15.265v-7.873h-2.111v-7.872c0-2.161,0.96-3.072,2.784-3.072s2.784,0.911,2.784,3.072v7.872h-2.112V118.356z M74.234,131.451
	c-1.127,4.948-1.765,8.231-2.401,11.612c-1.028,0-1.861-0.049-2.204-0.049l-0.343,2.303c0.195,0.049,1.028,0.049,2.155,0.049
	c-1.127,4.998-1.665,9.848-1.665,13.425c0,4.165,0.881,6.811,3.037,6.811c3.185,0,4.703-3.43,7.594-11.269
	c0-0.246-1.077-0.687-1.371-0.687c-1.471,3.772-3.381,8.378-4.703,8.378c-0.638,0-0.98-1.078-0.98-3.135
	c0-1.813,0.244-4.361,0.734-7.742c0.588-2.009,1.078-3.92,1.52-5.781c0.882,0,1.812,0,2.009-0.049l0.44-2.303
	c-0.44,0.049-1.127,0.098-1.91,0.098c0.832-3.92,1.322-7.644,1.567-11.661H74.234z M81.093,165.356
	c1.813-14.601,4.459-19.354,6.565-19.354c0.539,0,0.784,0.441,0.784,0.98c0,3.527-3.185,8.966-3.185,14.258
	c0,2.988,1.617,4.36,3.332,4.36c4.018,0,6.223-5.684,8.378-11.269c0-0.295-1.078-0.687-1.372-0.687
	c-2.156,5.634-3.772,8.378-5.047,8.378c-0.44,0-0.979-0.244-0.979-1.666c0-4.018,3.185-9.848,3.185-14.404
	c0-2.352-1.127-3.479-2.842-3.479c-2.106,0-4.115,1.519-5.732,3.969c0.195-0.932,0.393-1.812,0.539-2.695
	c3.037-3.724,7.252-10.436,7.252-14.404c0-1.862-0.932-3.087-3.381-3.087c-1.471,0-3.186,0.931-4.116,3.038
	c-2.009,4.557-4.165,16.462-5.88,26.85c0,0-1.519,4.018-1.519,7.888c0,0.441,0,0.882,0.05,1.323H81.093z M89.276,130.127
	c0,2.499-2.254,6.859-3.626,9.506c1.765-8.134,2.401-10.191,3.185-10.191C89.08,129.442,89.276,129.687,89.276,130.127z
	 M97.901,143.014c-0.834,3.527-2.989,11.318-2.989,16.756c0,3.381,0.882,5.831,3.528,5.831c4.018,0,5.732-5.684,7.888-11.269v-0.05
	c0-0.294-1.127-0.637-1.372-0.637c-2.155,5.634-3.772,8.378-5.047,8.378c-0.44,0-0.979-0.244-0.979-1.666
	c0-4.018,1.421-9.701,3.136-17.344H97.901z M100.792,140.172c2.156,0,3.43-2.059,3.43-3.822c0-1.371-0.686-2.547-2.303-2.547
	c-2.156,0-3.43,2.105-3.43,3.87C98.489,138.997,99.223,140.172,100.792,140.172z M106.77,165.356l1.959-10.143
	c1.617-6.908,3.773-9.211,4.998-9.211c0.539,0,0.783,0.441,0.783,0.98c0,3.527-3.184,8.966-3.184,14.258
	c0,2.988,1.616,4.36,3.331,4.36c4.018,0,6.223-5.684,8.378-11.269c0-0.295-1.078-0.687-1.371-0.687
	c-2.156,5.634-3.773,8.378-5.047,8.378c-0.441,0-0.98-0.244-0.98-1.666c0-4.018,3.186-9.848,3.186-14.404
	c0-2.352-1.127-3.479-2.842-3.479c-2.059,0-4.018,1.47-5.586,3.821l0.539-3.282h-4.214c-0.588,3.723-1.421,8.672-2.4,14.209
	c-1.372,3.674-1.813,8.133-1.813,8.133H106.77z M138.079,153.646c-1.273,3.331-3.185,6.075-5.242,8.427
	c1.42-7.79,3.037-16.903,3.625-19.059h-4.018l-0.44,2.106c-0.343-1.715-1.177-2.597-2.694-2.597c-4.655,0-8.428,10.191-8.428,17.1
	c0,3.576,0.979,6.223,3.381,6.223c2.008,0,3.625-1.47,4.85-3.675c-0.293,1.519-0.489,3.087-0.783,4.557
	c-3.626,3.479-6.762,6.271-6.762,9.652c0,2.597,1.568,3.87,3.773,3.87c3.135,0,4.997-3.625,5.83-8.574l1.078-6.32
	c2.646-2.744,5.34-6.223,7.202-11.023c0,0,0,0,0-0.05C139.451,153.989,138.52,153.646,138.079,153.646z M124.311,176.331
	c0-2.352,1.421-4.262,3.479-6.418l-0.98,5.242c-0.293,1.52-0.686,2.499-1.519,2.499
	C124.801,177.654,124.311,177.262,124.311,176.331z M129.553,146.051c1.078,0,1.52,1.274,1.52,3.087
	c0,4.557-2.793,12.543-5.047,12.543c-0.735,0-1.029-1.028-1.029-2.548C124.997,154.674,127.496,146.051,129.553,146.051z
	 M136.61,162.514c0.686,2.009,2.548,3.332,4.851,3.332c5.292,0,8.035-5.635,10.289-11.514c0-0.295-1.078-0.687-1.372-0.687
	c-0.734,1.911-1.519,3.724-2.449,5.243v-0.197c0-5.486-4.803-10.582-4.949-14.698c0.588-2.155,1.078-4.508,1.471-7.153l-3.332-0.637
	c-0.784,2.4-1.127,4.557-1.127,6.516c0,1.666,0.244,3.234,0.588,4.704c-0.932,2.353-1.862,4.557-2.499,6.223v0.049
	c0,0.392,1.372,0.638,1.372,0.638c0.539-1.471,1.176-2.989,1.715-4.606c1.078,3.479,2.498,6.419,2.498,9.456
	c0,1.764-0.686,2.646-1.91,2.646c-0.932,0-1.52-0.393-2.156-1.471L136.61,162.514z"/>
</svg>
